<svg width="512" height="512" viewBox="0 0 512 512" fill="none" xmlns="http://www.w3.org/2000/svg">
<path d="M48 144L256 24L464 144L256 488L48 144Z" fill="#E8EDF1"/>
<path d="M256 264V488L48 368V144L256 264Z" fill="#E0E2E5"/>
<path d="M256 264V488L464 368V144L256 264Z" fill="#D9DBDD"/>
<path d="M256 160C273.673 160 288 149.255 288 136C288 122.745 273.673 112 256 112C238.327 112 224 122.745 224 136C224 149.255 238.327 160 256 160Z" fill="#FCA311"/>
<path d="M325.015 311.628C336.953 301.52 340.751 286.381 333.498 277.814C326.244 269.246 310.686 270.495 298.747 280.603C286.809 290.711 283.011 305.85 290.264 314.417C297.518 322.985 313.076 321.736 325.015 311.628Z" fill="#EF233C"/>
<path d="M421.205 351.336C433.196 341.226 437.091 326.122 429.905 317.599C422.72 309.077 407.174 310.363 395.183 320.473C383.192 330.583 379.297 345.688 386.482 354.211C393.668 362.733 409.214 361.446 421.205 351.336Z" fill="#EF233C"/>
<path d="M221.421 410.159C228.674 401.592 224.876 386.452 212.938 376.345C200.999 366.237 185.441 364.988 178.187 373.555C170.934 382.123 174.732 397.262 186.67 407.37C198.609 417.478 214.167 418.726 221.421 410.159Z" fill="#006494"/>
<path d="M221.538 314.199C228.792 305.632 224.994 290.492 213.055 280.385C201.117 270.277 185.558 269.028 178.305 277.595C171.051 286.163 174.849 301.302 186.788 311.41C198.726 321.517 214.284 322.766 221.538 314.199Z" fill="#006494"/>
<path d="M125.567 258.214C132.82 249.647 129.022 234.508 117.084 224.4C105.145 214.292 89.5872 213.043 82.3336 221.611C75.08 230.178 78.8778 245.317 90.8163 255.425C102.755 265.533 118.313 266.782 125.567 258.214Z" fill="#006494"/>
<path d="M126.044 354.33C133.23 345.807 129.335 330.702 117.344 320.592C105.353 310.482 89.8071 309.196 82.6214 317.718C75.4357 326.241 79.331 341.345 91.3219 351.455C103.313 361.565 118.859 362.852 126.044 354.33Z" fill="#006494"/>
</svg>
