<svg width="512" height="512" viewBox="0 0 512 512" fill="none" xmlns="http://www.w3.org/2000/svg">
<path d="M55.552 508C27.128 508 4 484.872 4 456.448V55.552C4 27.128 27.128 4 55.552 4H456.44C484.872 4 507.992 27.128 507.992 55.552V456.44C507.992 484.872 484.864 507.992 456.44 507.992H55.552V508Z" fill="white"/>
<path d="M456.448 8C482.664 8 504 29.336 504 55.552V456.44C504 482.664 482.664 504 456.448 504H55.552C29.336 504 8 482.664 8 456.448V55.552C8 29.336 29.336 8 55.552 8H456.448ZM456.448 0H55.552C24.872 0 0 24.872 0 55.552V456.44C0 487.128 24.872 512 55.552 512H456.44C487.128 512 512 487.128 512 456.448V55.552C512 24.872 487.128 0 456.448 0Z" fill="#CCCCCC"/>
<path d="M256 301.256C280.994 301.256 301.256 280.994 301.256 256C301.256 231.006 280.994 210.744 256 210.744C231.006 210.744 210.744 231.006 210.744 256C210.744 280.994 231.006 301.256 256 301.256Z" fill="#006494"/>
</svg>
