<?xml version="1.0" encoding="iso-8859-1"?>
<!-- Generator: Adobe Illustrator 19.0.0, SVG Export Plug-In . SVG Version: 6.00 Build 0)  -->
<svg version="1.1" id="Layer_1" xmlns="http://www.w3.org/2000/svg" xmlns:xlink="http://www.w3.org/1999/xlink" x="0px" y="0px"
	 viewBox="0 0 512 512" style="enable-background:new 0 0 512 512;" xml:space="preserve">
<path style="fill:#FFFFFF;" d="M55.552,508C27.12,508,4,484.872,4,456.448V55.552C4,27.128,27.128,4,55.552,4H456.44
	c28.432,0,51.552,23.128,51.552,51.552V456.44c0,28.432-23.128,51.552-51.552,51.552H55.552V508z"/>
<path style="fill:#CCCCCC;" d="M456.448,8C482.664,8,504,29.336,504,55.552V456.44c0,26.224-21.336,47.56-47.552,47.56H55.552
	C29.336,504,8,482.664,8,456.448V55.552C8,29.336,29.336,8,55.552,8H456.448 M456.448,0H55.552C24.872,0,0,24.872,0,55.552V456.44
	C0,487.128,24.872,512,55.552,512H456.44c30.688,0,55.56-24.872,55.56-55.552V55.552C512,24.872,487.128,0,456.448,0L456.448,0z"/>
<g>
	<circle style="fill:#333333;" cx="394.72" cy="109.256" r="45.256"/>
	<circle style="fill:#333333;" cx="394.72" cy="402.72" r="45.256"/>
	<circle style="fill:#333333;" cx="117.256" cy="109.256" r="45.256"/>
	<circle style="fill:#333333;" cx="117.256" cy="402.72" r="45.256"/>
</g>
<g>
</g>
<g>
</g>
<g>
</g>
<g>
</g>
<g>
</g>
<g>
</g>
<g>
</g>
<g>
</g>
<g>
</g>
<g>
</g>
<g>
</g>
<g>
</g>
<g>
</g>
<g>
</g>
<g>
</g>
</svg>
