<svg width="512" height="512" viewBox="0 0 512 512" fill="none" xmlns="http://www.w3.org/2000/svg">
<path d="M55.552 508C27.128 508 4 484.872 4 456.448V55.552C4 27.128 27.128 4 55.552 4H456.44C484.872 4 507.992 27.128 507.992 55.552V456.44C507.992 484.872 484.864 507.992 456.44 507.992H55.552V508Z" fill="white"/>
<path d="M456.448 8C482.664 8 504 29.336 504 55.552V456.44C504 482.664 482.664 504 456.448 504H55.552C29.336 504 8 482.664 8 456.448V55.552C8 29.336 29.336 8 55.552 8H456.448ZM456.448 0H55.552C24.872 0 0 24.872 0 55.552V456.44C0 487.128 24.872 512 55.552 512H456.44C487.128 512 512 487.128 512 456.448V55.552C512 24.872 487.128 0 456.448 0Z" fill="#CCCCCC"/>
<path d="M277.659 256.501L443.618 99.207C449.461 93.6691 449.461 84.6906 443.618 79.1534C437.775 73.6162 428.302 73.6155 422.459 79.1534L256.5 236.447L90.5407 79.1534C84.6977 73.6155 75.2245 73.6155 69.3822 79.1534C63.54 84.6913 63.5393 93.6699 69.3822 99.207L235.341 256.5L69.3822 413.794C63.5393 419.332 63.5393 428.31 69.3822 433.847C72.3033 436.616 76.1326 438 79.9618 438C83.7911 438 87.6196 436.616 90.5414 433.847L256.5 276.554L422.459 433.847C425.38 436.616 429.209 438 433.038 438C436.867 438 440.696 436.616 443.618 433.847C449.461 428.31 449.461 419.331 443.618 413.794L277.659 256.501Z" fill="black"/>
</svg>
