<svg width="512" height="512" viewBox="0 0 512 512" fill="none" xmlns="http://www.w3.org/2000/svg">
<path d="M55.552 508C27.128 508 4 484.872 4 456.448V55.552C4 27.128 27.128 4 55.552 4H456.44C484.872 4 507.992 27.128 507.992 55.552V456.44C507.992 484.872 484.864 507.992 456.44 507.992H55.552V508Z" fill="white"/>
<path d="M456.448 8C482.664 8 504 29.336 504 55.552V456.44C504 482.664 482.664 504 456.448 504H55.552C29.336 504 8 482.664 8 456.448V55.552C8 29.336 29.336 8 55.552 8H456.448ZM456.448 0H55.552C24.872 0 0 24.872 0 55.552V456.44C0 487.128 24.872 512 55.552 512H456.44C487.128 512 512 487.128 512 456.448V55.552C512 24.872 487.128 0 456.448 0Z" fill="#CCCCCC"/>
<g clip-path="url(#clip0)">
<path d="M275.336 256.001L426.996 95.6738C432.335 90.0291 432.335 80.8774 426.996 75.2335C421.656 69.5896 412.999 69.5888 407.66 75.2335L256 235.56L104.34 75.2335C99.0005 69.5888 90.3435 69.5888 85.0047 75.2335C79.6658 80.8782 79.6651 90.0299 85.0047 95.6738L236.664 256L85.0047 416.327C79.6651 421.971 79.6651 431.123 85.0047 436.767C87.6741 439.589 91.1734 441 94.6727 441C98.172 441 101.671 439.589 104.341 436.767L256 276.441L407.66 436.767C410.329 439.589 413.828 441 417.328 441C420.827 441 424.326 439.589 426.996 436.767C432.335 431.122 432.335 421.971 426.996 416.327L275.336 256.001Z" fill="#EF233C"/>
</g>
<defs>
<clipPath id="clip0">
<rect width="350" height="370" fill="white" transform="translate(81 71)"/>
</clipPath>
</defs>
</svg>
