<svg width="512" height="512" viewBox="0 0 512 512" fill="none" xmlns="http://www.w3.org/2000/svg">
<path d="M55.552 508C27.12 508 4 484.872 4 456.448V55.552C4 27.128 27.128 4 55.552 4H456.44C484.872 4 507.992 27.128 507.992 55.552V456.44C507.992 484.872 484.864 507.992 456.44 507.992H55.552V508Z" fill="white"/>
<path d="M456.448 8C482.664 8 504 29.336 504 55.552V456.44C504 482.664 482.664 504 456.448 504H55.552C29.336 504 8 482.664 8 456.448V55.552C8 29.336 29.336 8 55.552 8H456.448ZM456.448 0H55.552C24.872 0 0 24.872 0 55.552V456.44C0 487.128 24.872 512 55.552 512H456.44C487.128 512 512 487.128 512 456.448V55.552C512 24.872 487.128 0 456.448 0Z" fill="#CCCCCC"/>
<path d="M166.088 439.976C191.082 439.976 211.344 419.714 211.344 394.72C211.344 369.726 191.082 349.464 166.088 349.464C141.094 349.464 120.832 369.726 120.832 394.72C120.832 419.714 141.094 439.976 166.088 439.976Z" fill="#EF233C"/>
<path d="M166.088 301.256C191.082 301.256 211.344 280.994 211.344 256C211.344 231.006 191.082 210.744 166.088 210.744C141.094 210.744 120.832 231.006 120.832 256C120.832 280.994 141.094 301.256 166.088 301.256Z" fill="#EF233C"/>
<path d="M166.088 162.512C191.082 162.512 211.344 142.25 211.344 117.256C211.344 92.2618 191.082 72 166.088 72C141.094 72 120.832 92.2618 120.832 117.256C120.832 142.25 141.094 162.512 166.088 162.512Z" fill="#EF233C"/>
<path d="M345.92 439.976C370.914 439.976 391.176 419.714 391.176 394.72C391.176 369.726 370.914 349.464 345.92 349.464C320.926 349.464 300.664 369.726 300.664 394.72C300.664 419.714 320.926 439.976 345.92 439.976Z" fill="#EF233C"/>
<path d="M345.92 301.256C370.914 301.256 391.176 280.994 391.176 256C391.176 231.006 370.914 210.744 345.92 210.744C320.926 210.744 300.664 231.006 300.664 256C300.664 280.994 320.926 301.256 345.92 301.256Z" fill="#EF233C"/>
<path d="M345.92 162.512C370.914 162.512 391.176 142.25 391.176 117.256C391.176 92.2618 370.914 72 345.92 72C320.926 72 300.664 92.2618 300.664 117.256C300.664 142.25 320.926 162.512 345.92 162.512Z" fill="#EF233C"/>
</svg>
