<svg width="512" height="512" viewBox="0 0 512 512" fill="none" xmlns="http://www.w3.org/2000/svg">
<path d="M55.552 508C27.128 508 4 484.872 4 456.448V55.552C4 27.128 27.128 4 55.552 4H456.44C484.872 4 507.992 27.128 507.992 55.552V456.44C507.992 484.872 484.864 507.992 456.44 507.992H55.552V508Z" fill="white"/>
<path d="M456.448 8C482.664 8 504 29.336 504 55.552V456.44C504 482.664 482.664 504 456.448 504H55.552C29.336 504 8 482.664 8 456.448V55.552C8 29.336 29.336 8 55.552 8H456.448ZM456.448 0H55.552C24.872 0 0 24.872 0 55.552V456.44C0 487.128 24.872 512 55.552 512H456.44C487.128 512 512 487.128 512 456.448V55.552C512 24.872 487.128 0 456.448 0Z" fill="#CCCCCC"/>
<path d="M394.72 154.512C419.714 154.512 439.976 134.25 439.976 109.256C439.976 84.2618 419.714 64 394.72 64C369.726 64 349.464 84.2618 349.464 109.256C349.464 134.25 369.726 154.512 394.72 154.512Z" fill="#EF233C"/>
<path d="M117.256 447.976C142.25 447.976 162.512 427.714 162.512 402.72C162.512 377.726 142.25 357.464 117.256 357.464C92.2618 357.464 72 377.726 72 402.72C72 427.714 92.2618 447.976 117.256 447.976Z" fill="#EF233C"/>
</svg>
