<svg id="Flat" height="512" viewBox="0 0 512 512" width="512" xmlns="http://www.w3.org/2000/svg"><path d="m48 144 208-120 208 120-208 344z" fill="#e8edf1"/><path d="m256 264v224l-208-120v-224z" fill="#e0e2e5"/><path d="m256 264v224l208-120v-224z" fill="#d9dbdd"/><g fill="#6a7073"><ellipse cx="256" cy="136" rx="32" ry="24"/><ellipse cx="311.998" cy="296.004" rx="28.331" ry="20.331" transform="matrix(.763 -.646 .646 .763 -117.392 271.815)"/><ellipse cx="407.864" cy="335.927" rx="28.381" ry="20.172" transform="matrix(.765 -.645 .645 .765 -120.495 341.993)"/><ellipse cx="199.887" cy="392" rx="20.331" ry="28.331" transform="matrix(.646 -.763 .763 .646 -228.419 291.139)"/><ellipse cx="200.002" cy="296.004" rx="20.331" ry="28.331" transform="matrix(.646 -.763 .763 .646 -155.131 257.28)"/><ellipse cx="103.994" cy="240" rx="20.331" ry="28.331" transform="matrix(.646 -.763 .763 .646 -146.35 164.22)"/><ellipse cx="104.136" cy="335.927" rx="20.172" ry="28.381" transform="matrix(.645 -.765 .765 .645 -219.819 199.015)"/></g></svg>